# xmcd
#
# Track frame offsets: 
#        150
#        9963
#        29000
#        44315
#        60340
#        78463
#        99690
#        120860
#        140220
#        162685
#        170388
#        188730
#        206428
#        248345
#
# Disc length: 3538 seconds
#
# Revision: 0
# Processed by: cddbd v1.5.2PL0 Copyright (c) Steve Scherf et al.
# Submitted via: ExactAudioCopy v0.95b4
#
DISCID=b20dd00e
DTITLE=Montell Jordan - Life After Def
DYEAR=2003
DGENRE=R&B
TTITLE0=The Big Man's Back
TTITLE1=Aight
TTITLE2=True
TTITLE3=I'm Going Krazy (Straight Bananas)
TTITLE4=Supa Star
TTITLE5=Bottom Line
TTITLE6=What If I Never
TTITLE7=Crushin'
TTITLE8=Make Up Sex
TTITLE9=Denise Interlude
TTITLE10=Denise
TTITLE11=Questions
TTITLE12=Yes Featuring Tonex - We Ride On Dem Thangs
TTITLE13=Enterprise Antnem (On The Rise)
EXTD=
EXTT0=
EXTT1=
EXTT2=
EXTT3=
EXTT4=
EXTT5=
EXTT6=
EXTT7=
EXTT8=
EXTT9=
EXTT10=
EXTT11=
EXTT12=
EXTT13=
PLAYORDER=
